# xmcd
#
# Track frame offsets:
#	150
#	11367
#	22345
#	31587
#	40860
#	52492
#	63795
#	75010
#	85692
#	97200
#	108215
#	119645
#	130542
#	140652
#	150017
#	161300
#	172725
#	183467
#	194097
#	204612
#	215250
#	226052
#	237810
#	248912
#	263302
#	273417
#	285772
#
# Disc length: 3982 seconds
#
# Revision: 1
# Processed by: cddbd v1.5PL3 Copyright (c) Steve Scherf et al.
# Submitted via: audiograbber 1.80
#
DISCID=550f8c1b
DTITLE=mitchel torok - Mexican Joe In The Caribbean disc 3
DYEAR=1900
DGENRE=
TTITLE0=You Drive, Buddy 
TTITLE1=The P.T.A. Rock And Roll 
TTITLE2=Here I Come Cruel World 
TTITLE3=Teenie Weenie Bikini 
TTITLE4=Cryin' Honky Tonk Blues 
TTITLE5=Caribbean 
TTITLE6=New Guitar 
TTITLE7=You Are The One 
TTITLE8=Especially For You 
TTITLE9=Kish Leon 
TTITLE10=Johnny's Gone Away To College 
TTITLE11=Mexican Joe 
TTITLE12=Little Hoo-Wee 
TTITLE13=Rig-A-Jig-A-Boom 
TTITLE14=You Are The One 
TTITLE15=That's My Desire 
TTITLE16=Guardian Angel 
TTITLE17=A Rose-Covered Garden 
TTITLE18=When The Stars Get In Your Eyes 
TTITLE19=I Want To Know Everything 
TTITLE20=Guardian Angel 
TTITLE21=Pink Chiffon 
TTITLE22=The Seventeenth Summer 
TTITLE23=What You Don't Know (Won't Hurt You) 
TTITLE24=Happy Street 
TTITLE25=Little Boy In Love 
TTITLE26=King Of Holiday Island 
EXTD=
EXTT0=
EXTT1=
EXTT2=
EXTT3=
EXTT4=
EXTT5=
EXTT6=
EXTT7=
EXTT8=
EXTT9=
EXTT10=
EXTT11=
EXTT12=
EXTT13=
EXTT14=
EXTT15=
EXTT16=
EXTT17=
EXTT18=
EXTT19=
EXTT20=
EXTT21=
EXTT22=
EXTT23=
EXTT24=
EXTT25=
EXTT26=
PLAYORDER=
